<svg width="35" height="37" viewBox="0 0 35 37" fill="none" xmlns="http://www.w3.org/2000/svg">
<path d="M35 18.465C35.0178 28.658 27.1546 36.9928 17.5127 37C13.3483 37.0031 9.52317 35.4685 6.51719 32.9038C5.73555 32.2369 5.67712 30.9985 6.38742 30.2476L7.18247 29.4071C7.78996 28.7649 8.7598 28.6947 9.43284 29.2591C11.6475 31.117 14.4503 32.2259 17.5 32.2259C24.6767 32.2259 30.4838 26.0857 30.4838 18.5C30.4838 10.9132 24.6756 4.7742 17.5 4.7742C14.0555 4.7742 10.927 6.18923 8.60407 8.49898L12.1855 12.2851C12.8968 13.037 12.393 14.3226 11.3872 14.3226H1.12903C0.505453 14.3226 0 13.7883 0 13.1291V2.28468C0 1.22138 1.21611 0.688828 1.9274 1.44069L5.41131 5.12369C8.55305 1.94966 12.8111 0 17.5 0C27.1539 0 34.9821 8.26384 35 18.465ZM22.234 24.3421L22.9272 23.3999C23.5014 22.6194 23.3684 21.4946 22.6301 20.8876L19.758 18.5261V10.742C19.758 9.75317 18.9998 8.95163 18.0645 8.95163H16.9355C16.0001 8.95163 15.2419 9.75317 15.2419 10.742V20.8611L19.8575 24.6561C20.5958 25.2631 21.6598 25.1226 22.234 24.3421Z" fill="black"/>
</svg>
