<svg width="41" height="33" viewBox="0 0 41 33" fill="none" xmlns="http://www.w3.org/2000/svg">
<path d="M19.9564 8.56107L6.83387 19.7477V31.8213C6.83387 32.1339 6.95385 32.4337 7.16742 32.6548C7.38099 32.8758 7.67064 33 7.97267 33L15.9486 32.9786C16.2496 32.9771 16.5378 32.8522 16.7501 32.6313C16.9625 32.4104 17.0817 32.1115 17.0817 31.7999V24.7491C17.0817 24.4365 17.2016 24.1367 17.4152 23.9156C17.6288 23.6946 17.9184 23.5704 18.2205 23.5704H22.7757C23.0777 23.5704 23.3674 23.6946 23.5809 23.9156C23.7945 24.1367 23.9145 24.4365 23.9145 24.7491V31.7948C23.914 31.9499 23.9431 32.1035 24.0001 32.247C24.0571 32.3904 24.141 32.5208 24.2468 32.6306C24.3525 32.7405 24.4782 32.8276 24.6166 32.8871C24.755 32.9466 24.9034 32.9772 25.0533 32.9772L33.0263 33C33.3283 33 33.618 32.8758 33.8316 32.6548C34.0451 32.4337 34.1651 32.1339 34.1651 31.8213V19.7396L21.0454 8.56107C20.8912 8.43239 20.699 8.36221 20.5009 8.36221C20.3028 8.36221 20.1107 8.43239 19.9564 8.56107ZM40.6847 16.1644L34.7345 11.0879V0.884027C34.7345 0.649569 34.6445 0.424713 34.4843 0.258926C34.3242 0.0931385 34.1069 0 33.8804 0H29.8946C29.6681 0 29.4508 0.0931385 29.2907 0.258926C29.1305 0.424713 29.0405 0.649569 29.0405 0.884027V6.23313L22.6682 0.806675C22.0567 0.28582 21.2893 0.0010412 20.4973 0.0010412C19.7054 0.0010412 18.938 0.28582 18.3265 0.806675L0.309966 16.1644C0.22348 16.2384 0.151926 16.3293 0.099393 16.4319C0.0468601 16.5346 0.0143779 16.6469 0.00380228 16.7625C-0.00677334 16.8781 0.00476493 16.9948 0.0377578 17.1058C0.0707507 17.2168 0.124552 17.32 0.196086 17.4094L2.01105 19.6932C2.08239 19.783 2.17014 19.8573 2.26927 19.9119C2.36841 19.9666 2.47698 20.0005 2.58877 20.0116C2.70057 20.0228 2.81339 20.011 2.92078 19.9769C3.02817 19.9429 3.12803 19.8873 3.21462 19.8133L19.9564 5.54064C20.1107 5.41196 20.3028 5.34179 20.5009 5.34179C20.699 5.34179 20.8912 5.41196 21.0454 5.54064L37.7879 19.8133C37.8744 19.8873 37.974 19.943 38.0813 19.9771C38.1885 20.0113 38.3012 20.0232 38.4129 20.0123C38.5246 20.0013 38.6332 19.9677 38.7323 19.9133C38.8315 19.859 38.9193 19.7849 38.9908 19.6954L40.8057 17.4117C40.8772 17.3217 40.9308 17.2179 40.9634 17.1065C40.996 16.995 41.007 16.8779 40.9957 16.762C40.9845 16.6461 40.9512 16.5337 40.8978 16.4311C40.8445 16.3285 40.7721 16.2379 40.6847 16.1644Z" fill="black"/>
</svg>
