<svg width="50" height="50" viewBox="0 0 50 50" fill="none" xmlns="http://www.w3.org/2000/svg">
<path d="M9.625 37.75C11.75 36.125 14.125 34.8438 16.75 33.9062C19.375 32.9688 22.125 32.5 25 32.5C27.875 32.5 30.625 32.9688 33.25 33.9062C35.875 34.8438 38.25 36.125 40.375 37.75C41.8333 36.0417 42.9688 34.1042 43.7813 31.9375C44.5938 29.7708 45 27.4583 45 25C45 19.4583 43.0521 14.7396 39.1563 10.8438C35.2604 6.94792 30.5417 5 25 5C19.4583 5 14.7396 6.94792 10.8438 10.8438C6.94792 14.7396 5 19.4583 5 25C5 27.4583 5.40625 29.7708 6.21875 31.9375C7.03125 34.1042 8.16667 36.0417 9.625 37.75ZM25 27.5C22.5417 27.5 20.4688 26.6563 18.7813 24.9688C17.0938 23.2813 16.25 21.2083 16.25 18.75C16.25 16.2917 17.0938 14.2188 18.7813 12.5313C20.4688 10.8438 22.5417 10 25 10C27.4583 10 29.5313 10.8438 31.2188 12.5313C32.9063 14.2188 33.75 16.2917 33.75 18.75C33.75 21.2083 32.9063 23.2813 31.2188 24.9688C29.5313 26.6563 27.4583 27.5 25 27.5ZM25 50C21.5417 50 18.2917 49.3437 15.25 48.0312C12.2083 46.7187 9.5625 44.9375 7.3125 42.6875C5.0625 40.4375 3.28125 37.7917 1.96875 34.75C0.65625 31.7083 0 28.4583 0 25C0 21.5417 0.65625 18.2917 1.96875 15.25C3.28125 12.2083 5.0625 9.5625 7.3125 7.3125C9.5625 5.0625 12.2083 3.28125 15.25 1.96875C18.2917 0.65625 21.5417 0 25 0C28.4583 0 31.7083 0.65625 34.75 1.96875C37.7917 3.28125 40.4375 5.0625 42.6875 7.3125C44.9375 9.5625 46.7187 12.2083 48.0312 15.25C49.3437 18.2917 50 21.5417 50 25C50 28.4583 49.3437 31.7083 48.0312 34.75C46.7187 37.7917 44.9375 40.4375 42.6875 42.6875C40.4375 44.9375 37.7917 46.7187 34.75 48.0312C31.7083 49.3437 28.4583 50 25 50Z" fill="black"/>
</svg>
