<svg width="36" height="41" viewBox="0 0 36 41" fill="none" xmlns="http://www.w3.org/2000/svg">
<path d="M18 41C20.8382 41 23.1404 38.7058 23.1404 35.875H12.8596C12.8596 38.7058 15.1618 41 18 41ZM35.3081 29.0115C33.7556 27.3491 30.8507 24.8482 30.8507 16.6563C30.8507 10.4342 26.4728 5.45332 20.5698 4.23133V2.5625C20.5698 1.14752 19.4191 0 18 0C16.5809 0 15.4302 1.14752 15.4302 2.5625V4.23133C9.52717 5.45332 5.14933 10.4342 5.14933 16.6563C5.14933 24.8482 2.24442 27.3491 0.691928 29.0115C0.209787 29.528 -0.00396229 30.1454 5.55578e-05 30.75C0.00889482 32.0633 1.04309 33.3125 2.57951 33.3125H33.4205C34.9569 33.3125 35.9919 32.0633 35.9999 30.75C36.004 30.1454 35.7902 29.5272 35.3081 29.0115Z" fill="black"/>
</svg>
