<svg xmlns="http://www.w3.org/2000/svg" xmlns:xlink="http://www.w3.org/1999/xlink" width="150" zoomAndPan="magnify" viewBox="0 0 112.5 149.999998" height="200" preserveAspectRatio="xMidYMid meet" version="1.0"><defs><clipPath id="695b4bdd6e"><path d="M 0 0.332031 L 32 0.332031 L 32 149.667969 L 0 149.667969 Z M 0 0.332031 " clip-rule="nonzero"/></clipPath><clipPath id="c8cbcc45ac"><path d="M 33 0.332031 L 61 0.332031 L 61 149.667969 L 33 149.667969 Z M 33 0.332031 " clip-rule="nonzero"/></clipPath><clipPath id="74cc8487b1"><path d="M 50 54 L 83 54 L 83 149.667969 L 50 149.667969 Z M 50 54 " clip-rule="nonzero"/></clipPath><clipPath id="02df31fdef"><path d="M 84 54 L 111.253906 54 L 111.253906 149.667969 L 84 149.667969 Z M 84 54 " clip-rule="nonzero"/></clipPath><clipPath id="b340df0955"><path d="M 0 0.332031 L 32 0.332031 L 32 149.667969 L 0 149.667969 Z M 0 0.332031 " clip-rule="nonzero"/></clipPath><clipPath id="c5ccd82971"><path d="M 33 0.332031 L 61 0.332031 L 61 149.667969 L 33 149.667969 Z M 33 0.332031 " clip-rule="nonzero"/></clipPath><clipPath id="2032c09e09"><path d="M 50 54 L 83 54 L 83 149.667969 L 50 149.667969 Z M 50 54 " clip-rule="nonzero"/></clipPath><clipPath id="ff26a7c593"><path d="M 84 54 L 111.253906 54 L 111.253906 149.667969 L 84 149.667969 Z M 84 54 " clip-rule="nonzero"/></clipPath></defs><g clip-path="url(#695b4bdd6e)"><path fill="#03485d" d="M 27.21875 135.203125 L 4.457031 135.96875 L 4.457031 140.179688 L 27.21875 139.652344 Z M 27.21875 127.714844 L 4.457031 128.875 L 4.457031 133.089844 L 27.21875 132.164062 Z M 27.21875 120.226562 L 4.457031 121.78125 L 4.457031 126 L 27.21875 124.675781 Z M 27.21875 112.742188 L 4.457031 114.691406 L 4.457031 118.90625 L 27.21875 117.191406 Z M 27.21875 105.253906 L 4.457031 107.601562 L 4.457031 111.8125 L 27.21875 109.703125 Z M 27.21875 97.765625 L 4.457031 100.507812 L 4.457031 104.726562 L 27.21875 102.214844 Z M 27.21875 90.277344 L 4.457031 93.417969 L 4.457031 97.632812 L 27.21875 94.730469 Z M 27.21875 82.789062 L 4.457031 86.324219 L 4.457031 90.542969 L 27.21875 87.242188 Z M 27.21875 75.304688 L 4.457031 79.234375 L 4.457031 83.449219 L 27.21875 79.753906 Z M 27.21875 67.816406 L 4.457031 72.140625 L 4.457031 76.355469 L 27.21875 72.265625 Z M 27.21875 60.324219 L 4.457031 65.050781 L 4.457031 69.265625 L 27.21875 64.777344 Z M 27.21875 52.839844 L 4.457031 57.957031 L 4.457031 62.175781 L 27.21875 57.289062 Z M 27.21875 45.351562 L 4.457031 50.867188 L 4.457031 55.082031 L 27.21875 49.800781 Z M 27.21875 37.863281 L 4.457031 43.777344 L 4.457031 47.988281 L 27.21875 42.3125 Z M 27.21875 30.378906 L 4.457031 36.683594 L 4.457031 40.898438 L 27.21875 34.828125 Z M 27.21875 22.890625 L 4.457031 29.59375 L 4.457031 33.804688 L 27.21875 27.339844 Z M 27.21875 15.402344 L 4.457031 22.5 L 4.457031 26.714844 L 27.21875 19.851562 Z M 31.683594 149.644531 L -0.00390625 149.644531 L -0.00390625 11.226562 L 31.683594 0.347656 L 31.683594 149.644531 " fill-opacity="1" fill-rule="nonzero"/></g><g clip-path="url(#c8cbcc45ac)"><path fill="#03485d" d="M 37.511719 45.351562 L 57.070312 50.867188 L 57.070312 55.082031 L 37.511719 49.800781 Z M 37.511719 37.863281 L 57.070312 43.777344 L 57.070312 47.988281 L 37.511719 42.3125 Z M 37.511719 30.378906 L 57.070312 36.683594 L 57.070312 40.898438 L 37.511719 34.828125 Z M 37.511719 22.890625 L 57.070312 29.59375 L 57.070312 33.804688 L 37.511719 27.339844 Z M 37.511719 15.402344 L 57.070312 22.5 L 57.070312 26.714844 L 37.511719 19.851562 Z M 48.523438 139.949219 L 37.511719 139.652344 L 37.511719 135.203125 L 48.523438 135.632812 L 48.523438 132.6875 L 37.511719 132.164062 L 37.511719 127.714844 L 48.523438 128.367188 L 48.523438 125.421875 L 37.511719 124.675781 L 37.511719 120.226562 L 48.523438 121.105469 L 48.523438 118.15625 L 37.511719 117.191406 L 37.511719 112.742188 L 48.523438 113.839844 L 48.523438 110.890625 L 37.511719 109.703125 L 37.511719 105.253906 L 48.523438 106.574219 L 48.523438 103.625 L 37.511719 102.214844 L 37.511719 97.765625 L 48.523438 99.308594 L 48.523438 96.363281 L 37.511719 94.730469 L 37.511719 90.277344 L 48.523438 92.042969 L 48.523438 89.097656 L 37.511719 87.242188 L 37.511719 82.789062 L 48.523438 84.78125 L 48.523438 81.832031 L 37.511719 79.753906 L 37.511719 75.304688 L 48.523438 77.515625 L 48.523438 74.566406 L 37.511719 72.265625 L 37.511719 67.816406 L 48.523438 70.25 L 48.523438 67.304688 L 37.511719 64.777344 L 37.511719 60.324219 L 48.523438 62.988281 L 48.523438 60.039062 L 37.511719 57.289062 L 37.511719 52.839844 L 56.246094 57.742188 L 60.90625 56.734375 L 60.90625 11.226562 L 33.679688 0.347656 L 33.679688 149.644531 L 48.523438 149.644531 L 48.523438 139.949219 " fill-opacity="1" fill-rule="nonzero"/></g><g clip-path="url(#74cc8487b1)"><path fill="#03485d" d="M 77.742188 135.203125 L 54.984375 135.96875 L 54.984375 140.179688 L 77.742188 139.652344 Z M 77.742188 127.714844 L 54.984375 128.875 L 54.984375 133.089844 L 77.742188 132.164062 Z M 77.742188 120.226562 L 54.984375 121.78125 L 54.984375 126 L 77.742188 124.675781 Z M 77.742188 112.742188 L 54.984375 114.691406 L 54.984375 118.90625 L 77.742188 117.191406 Z M 77.742188 105.253906 L 54.984375 107.601562 L 54.984375 111.8125 L 77.742188 109.703125 Z M 77.742188 97.765625 L 54.984375 100.507812 L 54.984375 104.726562 L 77.742188 102.214844 Z M 77.742188 90.277344 L 54.984375 93.417969 L 54.984375 97.632812 L 77.742188 94.730469 Z M 77.742188 82.789062 L 54.984375 86.324219 L 54.984375 90.542969 L 77.742188 87.242188 Z M 77.742188 75.304688 L 54.984375 79.234375 L 54.984375 83.449219 L 77.742188 79.753906 Z M 77.742188 67.816406 L 54.984375 72.140625 L 54.984375 76.355469 L 77.742188 72.265625 Z M 77.742188 60.328125 L 54.984375 65.050781 L 54.984375 69.265625 L 77.742188 64.777344 Z M 82.203125 149.644531 L 50.523438 149.644531 L 50.523438 61.03125 L 82.203125 54.15625 L 82.203125 149.644531 " fill-opacity="1" fill-rule="nonzero"/></g><g clip-path="url(#02df31fdef)"><path fill="#03485d" d="M 88.035156 135.203125 L 107.59375 135.96875 L 107.59375 140.179688 L 88.035156 139.652344 Z M 88.035156 127.714844 L 107.59375 128.875 L 107.59375 133.089844 L 88.035156 132.164062 Z M 88.035156 120.226562 L 107.59375 121.78125 L 107.59375 126 L 88.035156 124.675781 Z M 88.035156 112.742188 L 107.59375 114.691406 L 107.59375 118.90625 L 88.035156 117.191406 Z M 88.035156 105.253906 L 107.59375 107.601562 L 107.59375 111.8125 L 88.035156 109.703125 Z M 88.035156 97.765625 L 107.59375 100.507812 L 107.59375 104.726562 L 88.035156 102.214844 Z M 88.035156 90.277344 L 107.59375 93.417969 L 107.59375 97.632812 L 88.035156 94.730469 Z M 88.035156 82.789062 L 107.59375 86.324219 L 107.59375 90.542969 L 88.035156 87.242188 Z M 88.035156 75.304688 L 107.59375 79.234375 L 107.59375 83.449219 L 88.035156 79.753906 Z M 88.035156 67.816406 L 107.59375 72.140625 L 107.59375 76.355469 L 88.035156 72.265625 Z M 88.035156 60.324219 L 107.59375 65.050781 L 107.59375 69.265625 L 88.035156 64.777344 Z M 84.203125 149.644531 L 111.425781 149.644531 L 111.425781 61.03125 L 84.203125 54.15625 L 84.203125 149.644531 " fill-opacity="1" fill-rule="nonzero"/></g><g clip-path="url(#b340df0955)"><path fill="#03485d" d="M 27.21875 135.203125 L 4.457031 135.96875 L 4.457031 140.179688 L 27.21875 139.652344 Z M 27.21875 127.714844 L 4.457031 128.875 L 4.457031 133.089844 L 27.21875 132.164062 Z M 27.21875 120.226562 L 4.457031 121.78125 L 4.457031 126 L 27.21875 124.675781 Z M 27.21875 112.742188 L 4.457031 114.691406 L 4.457031 118.90625 L 27.21875 117.191406 Z M 27.21875 105.253906 L 4.457031 107.601562 L 4.457031 111.8125 L 27.21875 109.703125 Z M 27.21875 97.765625 L 4.457031 100.507812 L 4.457031 104.726562 L 27.21875 102.214844 Z M 27.21875 90.277344 L 4.457031 93.417969 L 4.457031 97.632812 L 27.21875 94.730469 Z M 27.21875 82.789062 L 4.457031 86.324219 L 4.457031 90.542969 L 27.21875 87.242188 Z M 27.21875 75.304688 L 4.457031 79.234375 L 4.457031 83.449219 L 27.21875 79.753906 Z M 27.21875 67.816406 L 4.457031 72.140625 L 4.457031 76.355469 L 27.21875 72.265625 Z M 27.21875 60.324219 L 4.457031 65.050781 L 4.457031 69.265625 L 27.21875 64.777344 Z M 27.21875 52.839844 L 4.457031 57.957031 L 4.457031 62.175781 L 27.21875 57.289062 Z M 27.21875 45.351562 L 4.457031 50.867188 L 4.457031 55.082031 L 27.21875 49.800781 Z M 27.21875 37.863281 L 4.457031 43.777344 L 4.457031 47.988281 L 27.21875 42.3125 Z M 27.21875 30.378906 L 4.457031 36.683594 L 4.457031 40.898438 L 27.21875 34.828125 Z M 27.21875 22.890625 L 4.457031 29.59375 L 4.457031 33.804688 L 27.21875 27.339844 Z M 27.21875 15.402344 L 4.457031 22.5 L 4.457031 26.714844 L 27.21875 19.851562 Z M 31.683594 149.644531 L -0.00390625 149.644531 L -0.00390625 11.226562 L 31.683594 0.347656 L 31.683594 149.644531 " fill-opacity="1" fill-rule="nonzero"/></g><g clip-path="url(#c5ccd82971)"><path fill="#03485d" d="M 37.511719 45.351562 L 57.070312 50.867188 L 57.070312 55.082031 L 37.511719 49.800781 Z M 37.511719 37.863281 L 57.070312 43.777344 L 57.070312 47.988281 L 37.511719 42.3125 Z M 37.511719 30.378906 L 57.070312 36.683594 L 57.070312 40.898438 L 37.511719 34.828125 Z M 37.511719 22.890625 L 57.070312 29.59375 L 57.070312 33.804688 L 37.511719 27.339844 Z M 37.511719 15.402344 L 57.070312 22.5 L 57.070312 26.714844 L 37.511719 19.851562 Z M 48.523438 139.949219 L 37.511719 139.652344 L 37.511719 135.203125 L 48.523438 135.632812 L 48.523438 132.6875 L 37.511719 132.164062 L 37.511719 127.714844 L 48.523438 128.367188 L 48.523438 125.421875 L 37.511719 124.675781 L 37.511719 120.226562 L 48.523438 121.105469 L 48.523438 118.15625 L 37.511719 117.191406 L 37.511719 112.742188 L 48.523438 113.839844 L 48.523438 110.890625 L 37.511719 109.703125 L 37.511719 105.253906 L 48.523438 106.574219 L 48.523438 103.625 L 37.511719 102.214844 L 37.511719 97.765625 L 48.523438 99.308594 L 48.523438 96.363281 L 37.511719 94.730469 L 37.511719 90.277344 L 48.523438 92.042969 L 48.523438 89.097656 L 37.511719 87.242188 L 37.511719 82.789062 L 48.523438 84.78125 L 48.523438 81.832031 L 37.511719 79.753906 L 37.511719 75.304688 L 48.523438 77.515625 L 48.523438 74.566406 L 37.511719 72.265625 L 37.511719 67.816406 L 48.523438 70.25 L 48.523438 67.304688 L 37.511719 64.777344 L 37.511719 60.324219 L 48.523438 62.988281 L 48.523438 60.039062 L 37.511719 57.289062 L 37.511719 52.839844 L 56.246094 57.742188 L 60.90625 56.734375 L 60.90625 11.226562 L 33.679688 0.347656 L 33.679688 149.644531 L 48.523438 149.644531 L 48.523438 139.949219 " fill-opacity="1" fill-rule="nonzero"/></g><g clip-path="url(#2032c09e09)"><path fill="#03485d" d="M 77.742188 135.203125 L 54.984375 135.96875 L 54.984375 140.179688 L 77.742188 139.652344 Z M 77.742188 127.714844 L 54.984375 128.875 L 54.984375 133.089844 L 77.742188 132.164062 Z M 77.742188 120.226562 L 54.984375 121.78125 L 54.984375 126 L 77.742188 124.675781 Z M 77.742188 112.742188 L 54.984375 114.691406 L 54.984375 118.90625 L 77.742188 117.191406 Z M 77.742188 105.253906 L 54.984375 107.601562 L 54.984375 111.8125 L 77.742188 109.703125 Z M 77.742188 97.765625 L 54.984375 100.507812 L 54.984375 104.726562 L 77.742188 102.214844 Z M 77.742188 90.277344 L 54.984375 93.417969 L 54.984375 97.632812 L 77.742188 94.730469 Z M 77.742188 82.789062 L 54.984375 86.324219 L 54.984375 90.542969 L 77.742188 87.242188 Z M 77.742188 75.304688 L 54.984375 79.234375 L 54.984375 83.449219 L 77.742188 79.753906 Z M 77.742188 67.816406 L 54.984375 72.140625 L 54.984375 76.355469 L 77.742188 72.265625 Z M 77.742188 60.328125 L 54.984375 65.050781 L 54.984375 69.265625 L 77.742188 64.777344 Z M 82.203125 149.644531 L 50.523438 149.644531 L 50.523438 61.03125 L 82.203125 54.15625 L 82.203125 149.644531 " fill-opacity="1" fill-rule="nonzero"/></g><g clip-path="url(#ff26a7c593)"><path fill="#03485d" d="M 88.035156 135.203125 L 107.59375 135.96875 L 107.59375 140.179688 L 88.035156 139.652344 Z M 88.035156 127.714844 L 107.59375 128.875 L 107.59375 133.089844 L 88.035156 132.164062 Z M 88.035156 120.226562 L 107.59375 121.78125 L 107.59375 126 L 88.035156 124.675781 Z M 88.035156 112.742188 L 107.59375 114.691406 L 107.59375 118.90625 L 88.035156 117.191406 Z M 88.035156 105.253906 L 107.59375 107.601562 L 107.59375 111.8125 L 88.035156 109.703125 Z M 88.035156 97.765625 L 107.59375 100.507812 L 107.59375 104.726562 L 88.035156 102.214844 Z M 88.035156 90.277344 L 107.59375 93.417969 L 107.59375 97.632812 L 88.035156 94.730469 Z M 88.035156 82.789062 L 107.59375 86.324219 L 107.59375 90.542969 L 88.035156 87.242188 Z M 88.035156 75.304688 L 107.59375 79.234375 L 107.59375 83.449219 L 88.035156 79.753906 Z M 88.035156 67.816406 L 107.59375 72.140625 L 107.59375 76.355469 L 88.035156 72.265625 Z M 88.035156 60.324219 L 107.59375 65.050781 L 107.59375 69.265625 L 88.035156 64.777344 Z M 84.203125 149.644531 L 111.425781 149.644531 L 111.425781 61.03125 L 84.203125 54.15625 L 84.203125 149.644531 " fill-opacity="1" fill-rule="nonzero"/></g></svg>