<?xml version="1.0" encoding="UTF-8" standalone="no"?>
<svg xmlns="http://www.w3.org/2000/svg" xmlns:xlink="http://www.w3.org/1999/xlink" fill="#000000" height="388.7" preserveAspectRatio="xMidYMid meet" version="1" viewBox="0.0 0.0 310.9 388.7" width="310.9" zoomAndPan="magnify">
  <g fill="#000000" id="change1_1">
    <path d="M260.82,181.31v-32.54h-1v32.54h-16.39l-33.65,33.65v52.7h50.04v92.82h1v-92.82h16.39l33.65-33.65v-52.7 H260.82z M243.84,182.31h15.97v17.85h1v-17.85h48.33l-32.36,32.36h-65.3L243.84,182.31z M210.78,215.67h65.72v50.99h-65.72V215.67z" fill="inherit"/>
    <path d="M225.22,165.34V42.1h-45.33V0h-22.37l-12.78,12.78V42.1h-22.22L88.87,75.75v105.56h-54.5v-50.55h-1v50.84 L0,214.96v25.63h33.36v7.84h1v-7.84h115.32l33.65-33.65v-7.95h8.23L225.22,165.34z M89.87,197.99V76.46h54.87v66.84h14.7v32.43h1 V143.3h6.66v0.07l12.29-12.29l0-0.05l0.5-0.5V76.46h10.97v121.53H89.87z M145.74,13.48h20.66V142.3h-20.66V13.48z M223.51,43.1 l-32.36,32.36h-11.27V43.1H223.51z M157.93,1h20.25L166.7,12.48h-20.25L157.93,1z M122.93,43.1h21.81v32.36H90.57L122.93,43.1z M34.36,198.49v-16.18h54.5v16.68h76.08l-15.68,15.68H1.71l31.65-31.65v15.47H34.36z M1,215.67h147.98v23.92H1V215.67z" fill="inherit"/>
    <path d="M171.24,255.66H68.54l-33.65,33.65v65.66h47.08l33.72,33.72h21.9l33.83-33.83v-27.37l-0.18-6.38V255.66z M68.95,256.66h100.58l-32.36,32.36l-100.58,0L68.95,256.66z M82.38,353.97H35.89v-63.95l101,0v97.68H116.1L82.38,353.97z" fill="inherit"/>
    <path d="M258.82 101.78H261.82V137.23000000000002H258.82z" fill="inherit"/>
    <path d="M33.35 121.62L34.35 121.62 34.36 116.23 39.75 116.24 39.75 115.24 34.36 115.23 34.36 109.85 33.36 109.85 33.36 115.23 27.97 115.23 27.97 116.23 33.36 116.23z" fill="inherit"/>
    <path d="M259.82 369.91H260.82V375.84000000000003H259.82z" fill="inherit"/>
  </g>
</svg>